<?xml version="1.0" encoding="UTF-8" standalone="no"?>
<!-- Created with Inkscape (http://www.inkscape.org/) -->

<svg
   width="61.807693mm"
   height="74.845291mm"
   viewBox="0 0 61.807693 74.845291"
   version="1.1"
   id="svg1"
   xml:space="preserve"
   inkscape:export-filename="test.svg"
   inkscape:export-xdpi="96"
   inkscape:export-ydpi="96"
   inkscape:version="1.4.2 (ebf0e940, 2025-05-08)"
   sodipodi:docname="survivor_pool_torch.svg"
   inkscape:export-batch-path="/Users/jonahjacobsen/Downloads"
   inkscape:export-batch-name="haha"
   xmlns:inkscape="http://www.inkscape.org/namespaces/inkscape"
   xmlns:sodipodi="http://sodipodi.sourceforge.net/DTD/sodipodi-0.dtd"
   xmlns="http://www.w3.org/2000/svg"
   xmlns:svg="http://www.w3.org/2000/svg"><sodipodi:namedview
     id="namedview1"
     pagecolor="#ffffff"
     bordercolor="#000000"
     borderopacity="0.25"
     inkscape:showpageshadow="2"
     inkscape:pageopacity="0.0"
     inkscape:pagecheckerboard="0"
     inkscape:deskcolor="#d1d1d1"
     inkscape:document-units="mm"
     inkscape:zoom="0.42377916"
     inkscape:cx="586.39032"
     inkscape:cy="750.39084"
     inkscape:window-width="1472"
     inkscape:window-height="909"
     inkscape:window-x="37"
     inkscape:window-y="39"
     inkscape:window-maximized="0"
     inkscape:current-layer="layer1"><inkscape:page
       x="0"
       y="0"
       width="61.807693"
       height="74.845291"
       id="page2"
       margin="0"
       bleed="0" /></sodipodi:namedview><defs
     id="defs1" /><g
     inkscape:label="1_Torch"
     inkscape:groupmode="layer"
     id="layer1"
     inkscape:export-filename="layer1.svg"
     inkscape:export-xdpi="96"
     inkscape:export-ydpi="96"
     transform="translate(-75.415276,-35.673891)"><path
       style="fill:#000000;stroke-width:0.310594"
       d="m 124.31505,108.35139 c 2.23971,-1.186 5.20589,-3.19831 6.59152,-4.4718 1.38564,-1.2735 3.37367,-3.993293 4.41788,-6.043984 1.0442,-2.050692 1.89852,-6.583789 1.89852,-10.073554 0,-3.489754 -0.86999,-8.0536 -1.9333,-10.141849 -1.06333,-2.088255 -4.6057,-6.29848 -7.87189,-9.356038 -3.26625,-3.057563 -7.28651,-7.299485 -8.93399,-9.426495 -1.92966,-2.491363 -2.99537,-5.7888 -2.99537,-9.267984 0,-2.970387 0.97325,-7.312093 2.16283,-9.648241 l 2.16281,-4.247556 -5.21925,0.940988 c -2.8706,0.517549 -9.55489,3.003589 -14.853994,5.524538 -5.299112,2.520939 -11.756263,6.738097 -14.34925,9.371447 -2.592981,2.633351 -5.898423,7.211141 -7.345409,10.172872 -1.985308,4.063608 -2.630877,8.287075 -2.630877,17.211947 0,10.601572 0.388272,12.422814 3.747246,17.577572 2.060968,3.162835 6.199574,7.398757 9.196871,9.413147 2.997332,2.01441 5.715824,3.39226 6.041104,3.06191 0.32528,-0.33034 -0.354625,-3.36999 -1.510884,-6.75477 -1.311833,-3.840135 -1.811289,-8.347391 -1.328316,-11.987101 0.425701,-3.208127 1.538476,-7.076153 2.472838,-8.595591 0.934393,-1.519448 2.524564,-3.084419 3.533742,-3.477708 1.390426,-0.54187 1.625626,0.252453 0.971005,3.279348 -0.511846,2.366664 -0.03861,6.000269 1.161256,8.916668 1.340308,3.257741 3.207158,5.223548 5.520578,5.813217 2.2227,0.566556 4.71095,0.08218 6.83375,-1.330461 1.83611,-1.221769 3.71766,-2.221405 4.18125,-2.221405 0.46362,0 0.63796,4.036498 0.38741,8.970023 -0.36883,7.26297 -0.0677,8.96784 1.58211,8.95861 1.12068,-0.007 3.87009,-0.98175 6.10981,-2.16775 z"
       id="path29"
       inkscape:label="Flame" /></g></svg>
