<?xml version="1.0" encoding="UTF-8" standalone="no"?>
<!-- Created with Inkscape (http://www.inkscape.org/) -->

<svg
   width="48.902779mm"
   height="167.55164mm"
   viewBox="0 0 48.902779 167.55164"
   version="1.1"
   id="svg1"
   xml:space="preserve"
   inkscape:export-filename="test.svg"
   inkscape:export-xdpi="96"
   inkscape:export-ydpi="96"
   inkscape:version="1.4.2 (ebf0e940, 2025-05-08)"
   sodipodi:docname="survivor_pool_torch.svg"
   inkscape:export-batch-path="/Users/jonahjacobsen/Downloads"
   inkscape:export-batch-name="haha"
   xmlns:inkscape="http://www.inkscape.org/namespaces/inkscape"
   xmlns:sodipodi="http://sodipodi.sourceforge.net/DTD/sodipodi-0.dtd"
   xmlns="http://www.w3.org/2000/svg"
   xmlns:svg="http://www.w3.org/2000/svg"><sodipodi:namedview
     id="namedview1"
     pagecolor="#ffffff"
     bordercolor="#000000"
     borderopacity="0.25"
     inkscape:showpageshadow="2"
     inkscape:pageopacity="0.0"
     inkscape:pagecheckerboard="0"
     inkscape:deskcolor="#d1d1d1"
     inkscape:document-units="mm"
     inkscape:zoom="0.42377916"
     inkscape:cx="586.39032"
     inkscape:cy="750.39084"
     inkscape:window-width="1472"
     inkscape:window-height="909"
     inkscape:window-x="37"
     inkscape:window-y="39"
     inkscape:window-maximized="0"
     inkscape:current-layer="layer1"><inkscape:page
       x="-1.1205539e-22"
       y="0"
       width="48.902779"
       height="167.55164"
       id="page2"
       margin="0"
       bleed="0" /></sodipodi:namedview><defs
     id="defs1" /><g
     inkscape:label="1_Torch"
     inkscape:groupmode="layer"
     id="layer1"
     inkscape:export-filename="layer1.svg"
     inkscape:export-xdpi="96"
     inkscape:export-ydpi="96"
     transform="translate(-81.527331,-120.93526)"><path
       d="m 115.70115,277.10554 c 0.11742,-6.25974 0.10066,-15.14203 -0.0374,-19.73843 -0.17239,-5.73873 1.46317,-15.60542 5.22006,-31.49189 5.39544,-22.81509 5.47104,-23.49614 5.47104,-49.28271 0,-21.96998 0.32561,-26.27481 2.03764,-26.94202 1.1207,-0.43673 2.03762,-2.27966 2.03762,-4.09536 0,-1.81572 -0.76409,-3.32393 -1.69803,-3.35158 -0.93389,-0.0276 -3.37905,-2.30042 -5.43364,-5.05061 -2.57147,-3.44203 -3.73564,-6.65076 -3.73564,-10.2964 0,-3.29728 -0.64082,-5.31014 -1.69801,-5.33333 -0.93389,-0.0204 -6.28262,-0.22621 -11.88608,-0.45719 -5.60345,-0.23096 -10.952182,-0.14779 -11.886082,0.18484 -0.961357,0.34242 -1.698007,2.90957 -1.698007,5.91735 0,4.31145 -1.02391,6.40564 -5.43365,11.11341 -2.98852,3.19047 -5.43364,6.94142 -5.43364,8.33541 0,1.39402 0.61126,2.53458 1.3584,2.53458 0.85408,0 1.35841,9.00355 1.35841,24.25155 0,23.7495 0.11893,24.75621 5.7446,48.62938 3.979097,16.88583 5.769657,27.55768 5.826157,34.72453 0.0449,5.69067 0.2106,15.15788 0.36826,21.03825 l 0.28667,10.69156 h 9.508852 9.5089 z m -2.2379,-61.83259 c 1.10898,-11.70716 2.01812,-21.75134 2.02034,-22.3204 0.004,-0.56905 1.2266,-1.03467 2.72084,-1.03467 1.90227,0 2.72651,0.93064 2.74906,3.104 0.0182,1.7072 -1.92131,11.94702 -4.30905,22.75515 -2.38771,10.80812 -4.53397,19.4555 -4.76943,19.21638 -0.23543,-0.2391 0.47928,-10.01331 1.58824,-21.72046 z M 91.093891,197.09121 c -0.0461,-4.13469 0.44679,-5.17333 2.455067,-5.17333 2.23115,0 2.689,1.97131 4.08505,17.58936 0.864746,9.67414 1.503906,19.14135 1.420356,21.03825 -0.0835,1.89688 -1.895846,-3.69031 -4.027356,-12.41603 -2.131517,-8.7257 -3.901407,-18.1929 -3.933117,-21.03825 z m 12.326779,3.44891 c -0.14632,-7.94442 0.0701,-8.62224 2.75223,-8.62224 2.84798,0 2.89052,0.30632 1.96481,14.14046 -0.52044,7.77725 -1.36601,15.69247 -1.8791,17.58936 -0.69781,2.57996 -1.15281,1.18966 -1.806,-5.51824 -0.48022,-4.93189 -0.94461,-12.84712 -1.03194,-17.58934 z"
       style="fill:#000000;fill-opacity:1;stroke-width:0.310594"
       id="path1-0"
       inkscape:label="Handle"
       inkscape:export-filename="handle.svg"
       inkscape:export-xdpi="96"
       inkscape:export-ydpi="96" /></g></svg>
